<svg version="1.2" xmlns="http://www.w3.org/2000/svg" viewBox="0 0 1080 1080" width="1080" height="1080">
	<style>
		.s0 { fill: #ffffff } 
		.s1 { fill: #000000 } 
	</style>
	<g id="Layer 1">
		<g id="&lt;Group&gt;">
			<path id="N" fill-rule="evenodd" class="s0" d="m780.14 834.92h-121.43l-237.14-395.43v627.53c-42.66-9.52-83.4-24.07-121.57-43v-779.02h121.57l237.53 395.82v-627.69c42.47 9.53 83.03 24.05 121.04 42.92z"/>
			<path id="N" fill-rule="evenodd" class="s1" d="m540 1080c-40.69 0-80.33-4.48-118.43-12.98v-627.53l237.14 395.43h121.43v-778.87c177.85 88.26 299.86 271.64 299.86 483.95 0 298.62-241.38 540-540 540z"/>
			<path id="N" fill-rule="evenodd" class="s1" d="m0 540c0-298.62 241.38-540 540-540 40.93 0 80.79 4.54 119.1 13.13v627.69l-237.53-395.82h-121.57v779.02c-177.92-88.24-300-271.65-300-484.02z"/>
		</g>
	</g>
</svg>