<?xml version="1.0" encoding="UTF-8" standalone="no"?>
<svg
   viewBox="0 0 87.05 72.4"
   version="1.1"
   id="svg3"
   sodipodi:docname="preset-landscape-img-dark.svg"
   inkscape:version="1.4.2 (ebf0e940d0, 2025-05-08)"
   xmlns:inkscape="http://www.inkscape.org/namespaces/inkscape"
   xmlns:sodipodi="http://sodipodi.sourceforge.net/DTD/sodipodi-0.dtd"
   xmlns="http://www.w3.org/2000/svg"
   xmlns:svg="http://www.w3.org/2000/svg"
   xmlns:rdf="http://www.w3.org/1999/02/22-rdf-syntax-ns#"
   xmlns:cc="http://creativecommons.org/ns#"
   xmlns:dc="http://purl.org/dc/elements/1.1/">
  <sodipodi:namedview
     id="namedview3"
     pagecolor="#ffffff"
     bordercolor="#999999"
     borderopacity="1"
     inkscape:showpageshadow="2"
     inkscape:pageopacity="0"
     inkscape:pagecheckerboard="0"
     inkscape:deskcolor="#d1d1d1"
     showguides="false"
     inkscape:zoom="3.2584275"
     inkscape:cx="17.493101"
     inkscape:cy="37.901718"
     inkscape:window-width="1366"
     inkscape:window-height="699"
     inkscape:window-x="0"
     inkscape:window-y="0"
     inkscape:window-maximized="1"
     inkscape:current-layer="svg3" />
  <defs
     id="defs1">
    <style
       id="style1">.cls-1{fill:none;stroke:#d1d1d1;stroke-miterlimit:10;stroke-width:1.27px;}</style>
  </defs>
  <title
     id="title1">preset-landscape-img</title>
  <g
     id="Layer_2"
     data-name="Layer 2"
     style="stroke:#4a4a4a;stroke-opacity:1">
    <g
       id="Layer_1-2"
       data-name="Layer 1"
       style="stroke:#4a4a4a;stroke-opacity:1">
      <rect
         class="cls-1"
         x="0.63"
         y="0.63"
         width="85.78"
         height="71.13"
         id="rect1"
         style="stroke:#4a4a4a;stroke-opacity:1" />
      <path
         class="cls-1"
         d="M57.54,46.52a12.5,12.5,0,0,1-25,0,12.26,12.26,0,0,1,1-5A12.51,12.51,0,0,1,44.36,34H45a12.44,12.44,0,0,1,11.46,7.52A12.26,12.26,0,0,1,57.54,46.52Z"
         id="path1"
         style="stroke:#4a4a4a;stroke-opacity:1" />
      <path
         class="cls-1"
         d="M64.38,29.85v20H57.09a12.39,12.39,0,0,0,.45-3.32,12.26,12.26,0,0,0-1-5A12.44,12.44,0,0,0,45,34H44.4v-4.2Z"
         id="path2"
         style="stroke:#4a4a4a;stroke-opacity:1" />
      <path
         class="cls-1"
         d="M51.06,14.27V29.85H44.4v4.2a12.51,12.51,0,0,0-10.82,7.5h-10Z"
         id="path3"
         style="stroke:#4a4a4a;stroke-opacity:1" />
    </g>
  </g>
  <metadata
     id="metadata3">
    <rdf:RDF>
      <cc:Work
         rdf:about="">
        <dc:title>preset-landscape-img</dc:title>
      </cc:Work>
    </rdf:RDF>
  </metadata>
</svg>
