<?xml version="1.0" encoding="UTF-8" standalone="no"?>
<svg
   viewBox="0 0 72.41 87.05"
   version="1.1"
   id="svg3"
   sodipodi:docname="preset-portrait-img-dark.svg"
   inkscape:version="1.4.2 (ebf0e940d0, 2025-05-08)"
   xmlns:inkscape="http://www.inkscape.org/namespaces/inkscape"
   xmlns:sodipodi="http://sodipodi.sourceforge.net/DTD/sodipodi-0.dtd"
   xmlns="http://www.w3.org/2000/svg"
   xmlns:svg="http://www.w3.org/2000/svg"
   xmlns:rdf="http://www.w3.org/1999/02/22-rdf-syntax-ns#"
   xmlns:cc="http://creativecommons.org/ns#"
   xmlns:dc="http://purl.org/dc/elements/1.1/">
  <sodipodi:namedview
     id="namedview3"
     pagecolor="#ffffff"
     bordercolor="#999999"
     borderopacity="1"
     inkscape:showpageshadow="2"
     inkscape:pageopacity="0"
     inkscape:pagecheckerboard="0"
     inkscape:deskcolor="#d1d1d1"
     inkscape:zoom="5.6404363"
     inkscape:cx="36.167415"
     inkscape:cy="43.525002"
     inkscape:window-width="1366"
     inkscape:window-height="699"
     inkscape:window-x="0"
     inkscape:window-y="0"
     inkscape:window-maximized="1"
     inkscape:current-layer="svg3" />
  <defs
     id="defs1">
    <style
       id="style1">.cls-1{fill:none;stroke:#d1d1d1;stroke-miterlimit:10;stroke-width:1.27px;}</style>
  </defs>
  <title
     id="title1">preset-img</title>
  <g
     id="Layer_2"
     data-name="Layer 2"
     style="stroke:#4a4a4a;stroke-opacity:1">
    <g
       id="Layer_1-2"
       data-name="Layer 1"
       style="stroke:#4a4a4a;stroke-opacity:1">
      <rect
         class="cls-1"
         x="0.64"
         y="0.64"
         width="71.13"
         height="85.78"
         id="rect1"
         style="stroke:#4a4a4a;stroke-opacity:1" />
      <path
         class="cls-1"
         d="M48.3,53.11a12.39,12.39,0,0,1-.45,3.32A12.5,12.5,0,0,1,23.3,53.11a12.26,12.26,0,0,1,1-5,12.51,12.51,0,0,1,10.82-7.5h.64a12.44,12.44,0,0,1,11.46,7.52A12.26,12.26,0,0,1,48.3,53.11Z"
         id="path1"
         style="stroke:#4a4a4a;stroke-opacity:1" />
      <path
         class="cls-1"
         d="M55.14,36.44v20H47.85a12.39,12.39,0,0,0,.45-3.32,12.26,12.26,0,0,0-1-5A12.44,12.44,0,0,0,35.8,40.62h-.64v-4.2Z"
         id="path2"
         style="stroke:#4a4a4a;stroke-opacity:1" />
      <path
         class="cls-1"
         d="M41.82,20.86V36.44H35.16v4.2a12.51,12.51,0,0,0-10.82,7.5h-10Z"
         id="path3"
         style="stroke:#4a4a4a;stroke-opacity:1" />
    </g>
  </g>
  <metadata
     id="metadata3">
    <rdf:RDF>
      <cc:Work
         rdf:about="">
        <dc:title>preset-img</dc:title>
      </cc:Work>
    </rdf:RDF>
  </metadata>
</svg>
